<?xml version="1.0" standalone="no"?>
<!DOCTYPE svg PUBLIC "-//W3C//DTD SVG 20010904//EN"
 "http://www.w3.org/TR/2001/REC-SVG-20010904/DTD/svg10.dtd">
<svg version="1.0" xmlns="http://www.w3.org/2000/svg"
 width="280.000000pt" height="280.000000pt" viewBox="0 0 280.000000 280.000000"
 preserveAspectRatio="xMidYMid meet">

<g transform="translate(0.000000,280.000000) scale(0.100000,-0.100000)"
fill="#000000" stroke="none">
<path d="M1265 2539 c-157 -20 -326 -79 -469 -163 -97 -58 -273 -229 -344
-335 -187 -280 -241 -640 -146 -970 31 -105 87 -227 144 -312 63 -94 223 -253
315 -314 279 -184 637 -240 952 -149 203 59 339 138 490 287 149 146 222 263
288 460 45 135 59 249 52 417 -10 220 -71 407 -190 585 -60 90 -221 250 -312
310 -226 150 -512 217 -780 184z m296 -377 c165 -55 281 -177 333 -352 14 -44
18 -118 23 -362 8 -401 -2 -382 210 -393 133 -8 179 -18 193 -45 17 -32 11
-75 -12 -97 -23 -21 -100 -33 -319 -50 l-76 -6 -102 97 c-101 96 -131 112
-159 84 -7 -7 -12 -18 -12 -26 0 -15 56 -89 160 -210 52 -61 64 -81 64 -110 0
-24 -7 -40 -23 -53 -36 -30 -73 -24 -128 20 -26 22 -79 65 -118 96 -38 32 -92
77 -118 101 -26 24 -54 44 -62 44 -8 0 -24 -11 -37 -24 -51 -55 -285 -258
-305 -266 -27 -11 -50 -4 -80 23 -35 31 -29 68 20 129 127 158 168 219 165
246 -2 22 -9 28 -34 30 -27 3 -41 -8 -128 -99 l-98 -102 -177 8 c-191 8 -221
16 -241 65 -13 32 0 74 29 90 12 6 80 17 153 25 139 16 189 32 205 68 7 14 8
138 5 327 -5 343 -1 379 55 492 89 177 278 285 478 274 44 -3 105 -13 136 -24z"/>
<path d="M1215 1814 c-16 -8 -64 -38 -105 -67 -104 -73 -103 -83 20 -165 78
-52 101 -62 130 -60 33 3 35 5 35 38 0 36 -12 47 -95 93 l-33 18 64 42 c66 43
83 73 59 103 -16 18 -37 18 -75 -2z"/>
<path d="M1510 1816 c-24 -30 -7 -60 58 -103 l64 -41 -49 -28 c-69 -40 -83
-54 -83 -85 0 -44 31 -55 83 -30 79 39 182 116 185 139 4 23 -31 52 -150 125
-67 40 -89 45 -108 23z"/>
</g>
</svg>
